<svg xmlns="http://www.w3.org/2000/svg" viewBox="0 0 102 102"><g fill="none" fill-rule="evenodd"><path d="M51 1c27.614 0 50 22.386 50 50s-22.386 50-50 50S1 78.614 1 51 23.386 1 51 1Zm27 21H24l23.25 31L24 84h54L54.75 53 78 22Z" stroke="#979797" fill="#046D00"/><path d="M78 22 54.75 53 78 84H24l23.25-31L24 22h54Z" stroke="#2A951C" fill="#48BF34"/><path d="m87.453 85.223.46-.497.096-.105-.096.105c.184-.2.366-.403.547-.607l.44-.506a50.277 50.277 0 0 0 1.583-1.932l-.103.132c.14-.179.28-.359.417-.54l-.314.408c.154-.198.307-.398.459-.599l.41-.553a50.162 50.162 0 0 0 .51-.706l-.155.217a50.12 50.12 0 0 0 1.054-1.534l-.166.25a50.021 50.021 0 0 0 1.77-2.848l-.083.142c.12-.207.238-.414.355-.622l-.273.48c.118-.205.234-.41.35-.616l-.077.136a49.884 49.884 0 0 0 .866-1.612l-.144.277a49.815 49.815 0 0 0 .806-1.615l-.085.178c.109-.227.217-.455.323-.684l-.238.506c.101-.213.2-.426.3-.64l-.062.134a49.721 49.721 0 0 0 .698-1.582l-.062.148a49.67 49.67 0 0 0 .659-1.63l-.072.185c.09-.232.179-.465.265-.7l-.193.515c.086-.225.17-.451.254-.678l-.06.164c.096-.26.19-.52.282-.781l-.222.617c.103-.28.203-.56.3-.843l-.078.226a49.606 49.606 0 0 0 .786-2.43l-.076.254c.073-.243.145-.487.214-.732l-.138.479a49.614 49.614 0 0 0 .955-3.775l-.032.149a49.745 49.745 0 0 0 .35-1.784l-.048.267a49.856 49.856 0 0 0 .306-1.88l-.036.245a50.054 50.054 0 0 0 .314-2.568l-.015.155a50.37 50.37 0 0 0 .193-2.67l.026-.673a50.813 50.813 0 0 0 .022-.959l-.005.302a50.986 50.986 0 0 0-.043 1.33l-.007.148a50.565 50.565 0 0 1-.707 6.303 49.788 49.788 0 0 1-2.607 9.319 49.671 49.671 0 0 1-4.865 9.413 50.055 50.055 0 0 1-1.82 2.576l-.048.064a50.2 50.2 0 0 1-1.929 2.393l-.063.074a50.29 50.29 0 0 1-1.448 1.61l-.029.03a50.308 50.308 0 0 1-5.134 4.748A49.79 49.79 0 0 1 51 101a49.79 49.79 0 0 1-31.29-10.998h62.58a50.25 50.25 0 0 0 .702-.575l-.077.064c.151-.125.302-.252.451-.379l-.374.315a50.272 50.272 0 0 0 1.062-.91l-.335.292c.16-.138.319-.277.477-.418l-.142.126a50.3 50.3 0 0 0 1.331-1.217l-.207.195c.175-.164.348-.329.52-.495l-.313.3c.165-.156.329-.314.492-.472l-.178.172c.17-.163.337-.328.504-.493l-.326.32a50.313 50.313 0 0 0 .894-.892l-.232.236c.165-.167.33-.336.494-.506l.42-.442Zm-72.486.442.262.27.233.236-.233-.236a50.314 50.314 0 0 0 .894.893l-.326-.321c.167.165.335.33.504.493l-.178-.172c.163.158.327.316.492.472l-.314-.3c.173.166.346.331.521.495l-.207-.195a50.302 50.302 0 0 0 1.331 1.217l-.142-.126c.158.14.317.28.477.418l-.335-.292a50.282 50.282 0 0 0 1.062.91l-.374-.315.451.38-.077-.065c.233.194.467.385.703.575h-.001a50.25 50.25 0 0 1-5.134-4.749l-.029-.03a50.305 50.305 0 0 1-1.448-1.61l-.063-.074a50.27 50.27 0 0 1-1.93-2.393l-.048-.064a50.173 50.173 0 0 1-5.223-8.604 49.765 49.765 0 0 1-3.225-8.844 49.661 49.661 0 0 1-1.379-7.796 50.377 50.377 0 0 1-.171-2.367l-.007-.147A50.746 50.746 0 0 1 1 51l.005.708A51.017 51.017 0 0 1 1 51l.005.708a50.91 50.91 0 0 0 .022.942l.026.674a50.59 50.59 0 0 0 .193 2.669l-.015-.155a50.077 50.077 0 0 0 .314 2.569l-.036-.245a49.878 49.878 0 0 0 .306 1.88l-.048-.269a49.758 49.758 0 0 0 .35 1.785l-.032-.15a49.663 49.663 0 0 0 .955 3.776l-.138-.48c.07.246.14.49.214.733l-.076-.253a49.605 49.605 0 0 0 .786 2.429l-.079-.226c.098.282.198.564.301.844l-.222-.618c.092.26.186.521.282.78l-.06-.162c.083.226.168.452.254.677l-.194-.514c.087.233.176.467.266.699l-.072-.185a49.665 49.665 0 0 0 .66 1.63l-.063-.147a49.716 49.716 0 0 0 .699 1.581l-.062-.134c.098.214.198.427.3.64l-.238-.506c.105.229.213.457.322.683l-.085-.177a49.804 49.804 0 0 0 .806 1.615l-.143-.277a49.873 49.873 0 0 0 .865 1.612l-.076-.136c.115.206.231.411.349.616l-.273-.48c.117.208.235.415.355.622l-.082-.142a50.011 50.011 0 0 0 1.77 2.848l-.167-.25a50.11 50.11 0 0 0 1.054 1.533l-.154-.215c.167.236.337.472.508.705l.411.553a50.19 50.19 0 0 0 .46.6l-.315-.41c.138.182.277.362.417.541l-.103-.132a50.248 50.248 0 0 0 1.582 1.932l.441.506a50.295 50.295 0 0 0 .547.607l.46.497.42.442Z" stroke="#2A951C" fill="#65EA4D"/></g></svg>