<?xml version="1.0" encoding="UTF-8"?>
<svg width="102px" height="102px" viewBox="0 0 102 102" version="1.1" xmlns="http://www.w3.org/2000/svg" xmlns:xlink="http://www.w3.org/1999/xlink">
    <title>TimerIcon/Pct10</title>
    <g id="Page-1" stroke="none" stroke-width="1" fill="none" fill-rule="evenodd">
        <g id="Artboard" transform="translate(-599.000000, -39.000000)">
            <g id="TimerIcon/Pct10" transform="translate(600.000000, 40.000000)">
                <path d="M50,0 C77.6142375,0 100,22.3857625 100,50 C100,77.6142375 77.6142375,100 50,100 C22.3857625,100 0,77.6142375 0,50 C0,22.3857625 22.3857625,0 50,0 Z M77,21 L23,21 L46.25,52 L23,83 L77,83 L53.75,52 L77,21 Z" id="Background" stroke="#979797" fill="#046D00"></path>
                <path d="M77,21 L53.75,52 L77,83 L23,83 L46.25,52 L23,21 L77,21 Z" id="Sablier" stroke="#2A951C" fill="#48BF34"></path>
                <path d="M86.4525431,84.2232022 L86.9132198,83.726039 C86.9451063,83.6911586 86.976944,83.6562329 87.0087328,83.6212619 L86.9132219,83.7260367 C87.0969543,83.5250532 87.2790672,83.3225641 87.4595397,83.1185901 L87.9009444,82.6129448 C87.963858,82.5398965 88.0265641,82.4666643 88.0890617,82.3932491 C88.5298088,81.8755078 88.9601594,81.3487021 89.3798208,80.8131194 C89.4143376,80.7690679 89.448718,80.7250395 89.4830262,80.6809521 L89.3798208,80.8131194 C89.5201213,80.6340643 89.6592271,80.4540282 89.7971261,80.2730232 L89.4830262,80.6809521 C89.637413,80.4825588 89.7903373,80.2829712 89.941783,80.0822055 L90.3529004,79.5293506 C90.4719723,79.3669102 90.590087,79.2037241 90.7072363,79.0398008 C90.7588929,78.9675181 90.8101116,78.8954459 90.8611438,78.8232324 L90.7072363,79.0398008 C91.0095849,78.6167338 91.3055025,78.1887558 91.5948461,77.7560095 C91.6504503,77.6728469 91.7057629,77.589582 91.7608321,77.5061424 L91.5948461,77.7560095 C92.1850464,76.8732981 92.7478943,75.9707475 93.2821777,75.0495698 C93.309507,75.0024508 93.3368477,74.9551332 93.3641131,74.9077669 L93.2821777,75.0495698 C93.4018771,74.8431917 93.5201427,74.6358787 93.636961,74.4276443 L93.3641131,74.9077669 C93.4818376,74.7032515 93.5981568,74.4978249 93.7130577,74.2915002 L93.636961,74.4276443 C93.8841914,73.986944 94.1249391,73.5421171 94.3590749,73.0932929 C94.40747,73.0005184 94.4551952,72.9083275 94.5026412,72.8159697 L94.3590749,73.0932929 C94.6067204,72.6185712 94.846969,72.1393775 95.0796677,71.6558647 C95.1083066,71.596356 95.1366521,71.5371579 95.1648844,71.4778955 L95.0796677,71.6558647 C95.1889666,71.4287581 95.2965999,71.2006985 95.4025516,70.971702 L95.1648844,71.4778955 C95.2661383,71.265353 95.3659361,71.0519833 95.4642649,70.8377991 L95.4025516,70.971702 C95.6219032,70.4976113 95.8340477,70.0195044 96.0388445,69.5375219 C96.0596946,69.4884517 96.0804273,69.4394391 96.101084,69.3903867 L96.0388445,69.5375219 C96.2418961,69.0596468 96.4377247,68.577962 96.6261933,68.0926042 C96.6500559,68.0311522 96.6738661,67.9694703 96.6975575,67.9077294 L96.6261933,68.0926042 C96.7163137,67.8605195 96.8047514,67.6275951 96.8914912,67.3938458 L96.6975575,67.9077294 C96.7839087,67.6826935 96.8686801,67.4568748 96.9518581,67.2302869 L96.8914912,67.3938458 C96.9877539,67.1344338 97.0819256,66.8740059 97.1739857,66.6125826 L96.9518581,67.2302869 C97.0546138,66.9503666 97.1549377,66.6692723 97.2528042,66.3870296 L97.1739857,66.6125826 C97.4267988,65.8946686 97.6636875,65.1692478 97.8842279,64.4367444 C97.9096201,64.3524055 97.9347436,64.2681487 97.9596506,64.1837991 L97.8842279,64.4367444 C97.9574301,64.1936104 98.0288311,63.949696 98.0984155,63.7050169 L97.9596506,64.1837991 C98.111152,63.6707279 98.2546442,63.1542211 98.3899827,62.6344235 C98.5687195,61.9479482 98.73325,61.2556636 98.8832226,60.5579716 C98.8939423,60.5081009 98.9045418,60.4584193 98.9150674,60.4087104 L98.8832226,60.5579716 C98.9912871,60.0552413 99.0917931,59.5497034 99.1846157,59.0414828 C99.2008875,58.9523942 99.2169624,58.8630014 99.2327994,58.7735264 L99.1846157,59.0414828 C99.2836074,58.4994852 99.3738606,57.9544364 99.4552238,57.4064878 C99.4673038,57.3251355 99.4792111,57.2435576 99.4909211,57.161916 L99.4552238,57.4064878 C99.5738118,56.6078453 99.6735144,55.8030425 99.7538631,54.992548 C99.7589441,54.9412988 99.7639815,54.8896751 99.7689403,54.8380284 L99.7538631,54.992548 C99.8303791,54.2207153 99.8893434,53.443721 99.9303515,52.6619698 C99.9362722,52.5490879 99.9418051,52.4364029 99.9469642,52.3236203 L99.9732743,51.6504428 C99.9803699,51.4316559 99.9860599,51.2125138 99.9903356,50.9930251 C99.9923005,50.8920881 99.9939567,50.7917838 99.9953171,50.691408 L99.9903356,50.9930251 C99.9967686,50.6627913 100,50.331773 100,50 C100,50.230838 99.9984357,50.4613107 99.9953171,50.691408 C99.9939478,50.7923619 99.9922894,50.8927297 99.9903356,50.9930251 C99.9816826,51.437537 99.9671966,51.8813281 99.9469642,52.3236203 L99.9400217,52.4707012 C99.9369178,52.5344889 99.9336943,52.5982452 99.9303515,52.6619698 C99.8920933,53.3913799 99.8381747,54.116941 99.7689403,54.8380284 C99.7640221,54.8892568 99.7589819,54.9409139 99.7538631,54.992548 C99.6816816,55.7206064 99.5939328,56.4437249 99.4909211,57.161916 C99.4792503,57.2432877 99.4673356,57.3249199 99.4552238,57.4064878 C99.3872391,57.8643274 99.3130762,58.3199826 99.2327994,58.7735264 C99.2169925,58.8628329 99.2009227,58.9521992 99.1846157,59.0414828 C99.1009454,59.499581 99.0110791,59.9552801 98.9150674,60.4087104 C98.9044975,60.4586276 98.8938969,60.5083133 98.8832226,60.5579716 C98.733289,61.2554972 98.568749,61.9478312 98.3899827,62.6344235 C98.2966428,62.9929141 98.1994439,63.3497716 98.0984155,63.7050169 C98.0529572,63.8648632 98.0066899,64.0244967 97.9596506,64.1837991 C97.9347287,64.2681993 97.9095863,64.3525187 97.8842279,64.4367444 C97.6867963,65.0925031 97.4762026,65.7427582 97.2528042,66.3870296 C97.226735,66.4622125 97.2004476,66.5374387 97.1739857,66.6125826 C97.1012645,66.8190895 97.0272152,67.0250039 96.9518581,67.2302869 C96.9317272,67.2851246 96.9116551,67.3395075 96.8914912,67.3938458 C96.8278425,67.565372 96.7631559,67.7367766 96.6975575,67.9077294 C96.6738986,67.9693858 96.6501052,68.0310246 96.6261933,68.0926042 C96.4570059,68.5283027 96.2819586,68.9608729 96.101084,69.3903867 C96.0803691,69.4395769 96.0596447,69.4885694 96.0388445,69.5375219 C95.8533419,69.9740986 95.6617667,70.4075918 95.4642649,70.8377991 C95.4438381,70.8822944 95.4232269,70.927016 95.4025516,70.971702 C95.3241453,71.1411605 95.2449703,71.3097868 95.1648844,71.4778955 C95.1365751,71.5373193 95.1081781,71.5966244 95.0796677,71.6558647 C94.8923226,72.0451479 94.6998935,72.4320013 94.5026412,72.8159697 C94.4549131,72.9088743 94.4071332,73.0011678 94.3590749,73.0932929 C94.1492942,73.4954465 93.9337933,73.8951307 93.7130577,74.2915002 C93.6877524,74.3369404 93.662391,74.3823142 93.636961,74.4276443 C93.5469193,74.5881493 93.4559437,74.7482353 93.3641131,74.9077669 C93.3368689,74.9550964 93.3095608,75.0023575 93.2821777,75.0495698 C92.7981402,75.8841099 92.2907537,76.7032179 91.7608321,77.5061424 C91.7058596,77.5894366 91.6504743,77.6728112 91.5948461,77.7560095 C91.3548104,78.1150115 91.1101994,78.4708042 90.8611438,78.8232324 C90.8098368,78.8958333 90.7586294,78.967888 90.7072363,79.0398008 C90.4566525,79.3904414 90.2013902,79.7380543 89.941783,80.0822055 L89.8933574,80.1462948 C89.861346,80.1885901 89.8292688,80.230833 89.7971261,80.2730232 C89.693268,80.4093485 89.5884883,80.545429 89.4830262,80.6809521 C89.4485627,80.7252385 89.4142277,80.7692084 89.3798208,80.8131194 C88.9601944,81.3486597 88.5298128,81.8755041 88.0890617,82.3932491 C88.0475213,82.4420462 88.0058602,82.4907958 87.9641071,82.5394642 L87.9009444,82.6129448 C87.60801,82.9530676 87.3105753,83.2892041 87.0087328,83.6212619 C86.9769614,83.6562138 86.9451161,83.6911479 86.9132219,83.7260367 C86.760772,83.8928005 86.6072091,84.0585255 86.4525431,84.2232022 L86.4244197,84.2531213 C86.3741777,84.3065278 86.3238196,84.3598237 86.2733458,84.4130087 C86.1933705,84.4972797 86.113101,84.5812762 86.0325425,84.6649926 C85.9455656,84.7553787 85.8583084,84.8453804 85.7707168,84.935054 C85.6937948,85.0138056 85.6163374,85.0925846 85.5386215,85.1711075 C85.4272332,85.2836515 85.3154613,85.3955232 85.2031641,85.5068659 C85.094843,85.6142661 84.9860559,85.7211519 84.8767838,85.827542 C84.8176316,85.8851342 84.7583506,85.9425682 84.6989281,85.9998564 C84.5946962,86.1003445 84.4900866,86.2003294 84.3850454,86.2998633 C84.3160149,86.3652739 84.2469435,86.4303534 84.1776873,86.495238 C83.8545798,86.7979561 83.5271033,87.0967409 83.1956853,87.3911863 C83.1487928,87.4328484 83.1014196,87.474778 83.0539663,87.5166189 C82.9424515,87.6149425 82.8309608,87.712373 82.7190354,87.8093149 C82.6021342,87.9105679 82.484454,88.0115469 82.3663008,88.1119862 C82.2421485,88.2175257 82.1173729,88.3225536 81.9920786,88.4269803 C81.9661427,88.4485963 81.9404629,88.4699555 81.9147613,88.4912895 C81.7082138,88.6627395 81.5000406,88.8327381 81.2904819,89.0010826 C72.7234408,95.8828726 61.8425237,100 50,100 C38.1574763,100 27.2765592,95.8828726 18.7105118,89.0018809 L81.2894882,89.0018809 C81.499308,88.8333354 81.7077391,88.6631316 81.9147613,88.4912895 C81.9407024,88.4697564 81.9664014,88.448381 81.9920786,88.4269803 L81.9147613,88.4912895 C82.0660292,88.3657272 82.2165449,88.2392902 82.3663008,88.1119862 L81.9920786,88.4269803 C82.2363804,88.2233667 82.4787103,88.0174673 82.7190354,87.8093149 C82.8313169,87.7120631 82.9428609,87.6145839 83.0539663,87.5166189 L82.7190354,87.8093149 C82.878808,87.6709313 83.0376945,87.5315518 83.1956853,87.3911863 L83.0539663,87.5166189 C83.4337077,87.1817896 83.8083255,86.8412851 84.1776873,86.495238 C84.2472169,86.430096 84.3162238,86.3650764 84.3850454,86.2998633 L84.1776873,86.495238 C84.3526179,86.3313493 84.5263695,86.1662174 84.6989281,85.9998564 L84.3850454,86.2998633 C84.5500272,86.1435316 84.713944,85.9860872 84.8767838,85.827542 L84.6989281,85.9998564 C84.8681587,85.836704 85.0362417,85.6723694 85.2031641,85.5068659 L84.8767838,85.827542 C85.0994199,85.6107778 85.3200427,85.391956 85.5386215,85.1711075 C85.6161479,85.0927767 85.6935621,85.0140426 85.7707168,84.935054 L85.5386215,85.1711075 C85.7044426,85.0035645 85.8690874,84.8348551 86.0325425,84.6649926 L86.0324864,84.6650509 L86.4525431,84.2232022 L86.4525431,84.2232022 Z M13.9674575,84.6649926 L14.2292832,84.935054 C14.3064379,85.0140426 14.3838521,85.0927767 14.4615244,85.1712549 L14.2290075,84.9347717 C14.4167612,85.1269913 14.6060516,85.3177035 14.7968586,85.5068884 C14.9051463,85.6142556 15.0139453,85.7211532 15.1232295,85.827555 L14.7968586,85.5068884 C14.9637923,85.6724029 15.1318869,85.8367484 15.3011291,85.9999116 L15.1232295,85.827555 C15.2861125,85.9861421 15.4500732,86.1436279 15.6150994,86.3000004 L15.3011291,85.9999116 C15.4735576,86.1661467 15.6471774,86.3311545 15.8219744,86.4949211 L15.6150994,86.3000004 C16.0054619,86.6698929 16.4017865,87.033556 16.8039143,87.3908305 C16.8516282,87.4332216 16.8990221,87.4751685 16.946496,87.5170266 L16.8039143,87.3908305 C16.9619374,87.5312278 17.1208566,87.6706385 17.2806624,87.8090531 L16.946496,87.5170266 C17.1737057,87.7173592 17.4027495,87.9156601 17.6335989,88.111901 C17.7580104,88.2176603 17.8828452,88.322737 18.0081992,88.4272118 L17.6335989,88.111901 C17.7833151,88.2391719 17.9337908,88.3655764 18.0850183,88.4911065 L18.0081992,88.4272118 C18.2405295,88.6208449 18.4746431,88.8124106 18.7105118,89.0018809 L18.7095181,89.0010826 C18.4999594,88.8327381 18.2917862,88.6627395 18.0850183,88.4911065 C18.0595371,88.4699555 18.0338573,88.4485963 18.0081992,88.4272118 C17.8826271,88.3225536 17.7578515,88.2175257 17.6335989,88.111901 C17.515546,88.0115469 17.3978658,87.9105679 17.2806624,87.8090531 C17.1690392,87.712373 17.0575485,87.6149425 16.946496,87.5170266 C16.8985804,87.474778 16.8512072,87.4328484 16.8039143,87.3908305 C16.4728967,87.0967409 16.1454202,86.7979561 15.8219744,86.4949211 C15.7530565,86.4303534 15.6839851,86.3652739 15.6150994,86.3000004 C15.5099134,86.2003294 15.4053038,86.1003445 15.3011291,85.9999116 C15.2416494,85.9425682 15.1823684,85.8851342 15.1232295,85.827555 C15.0139441,85.7211519 14.905157,85.6142661 14.7968586,85.5068884 C14.6845387,85.3955232 14.5727668,85.2836515 14.4615244,85.1712549 C14.3836626,85.0925846 14.3062052,85.0138056 14.2290075,84.9347717 C14.1416916,84.8453804 14.0544344,84.7553787 13.9675136,84.6650509 C13.886899,84.5812762 13.8066295,84.4972797 13.7266505,84.4130048 C13.6761804,84.3598237 13.6258223,84.3065278 13.5755803,84.2531213 L13.5474569,84.2232022 C13.3927909,84.0585255 13.239228,83.8928005 13.0867802,83.726039 C13.0548839,83.6911479 13.0230386,83.6562138 12.9912422,83.6212344 C12.6894247,83.2892041 12.39199,82.9530676 12.0990556,82.6129448 L12.0358929,82.5394642 C11.9941398,82.4907958 11.9524787,82.4420462 11.9109098,82.3932156 C11.4701872,81.8755041 11.0398056,81.3486597 10.6201148,80.8130372 C10.5857723,80.7692084 10.5514373,80.7252385 10.5171743,80.6812097 C10.4115117,80.545429 10.306732,80.4093485 10.2026399,80.272716 C10.1707312,80.230833 10.138654,80.1885901 10.1066426,80.1462948 L10.058217,80.0822055 C9.79860979,79.7380543 9.54334755,79.3904414 9.29251181,79.0394484 C9.24137057,78.967888 9.19016324,78.8958333 9.13914243,78.8236374 C8.88980063,78.4708042 8.64518959,78.1150115 8.4051047,77.7559359 C8.34952566,77.6728112 8.29414039,77.5894366 8.23899914,77.5058867 C7.70924635,76.7032179 7.20185977,75.8841099 6.71790897,75.0497192 C6.69043917,75.0023575 6.66313109,74.9550964 6.63589821,74.9077865 C6.5440563,74.7482353 6.45308072,74.5881493 6.36296642,74.427515 C6.33760901,74.3823142 6.31224764,74.3369404 6.286955,74.2915231 C6.06620667,73.8951307 5.85070577,73.4954465 5.64053304,73.0925412 C5.59286676,73.0011678 5.54508694,72.9088743 5.4975868,72.8164136 C5.30010646,72.4320013 5.10767745,72.0451479 4.92015174,71.6554894 C4.89182195,71.5966244 4.86342489,71.5373193 4.83514144,71.4779496 C4.75502969,71.3097868 4.67585466,71.1411605 4.59759694,70.9720231 C4.57677313,70.927016 4.55616192,70.8822944 4.53561487,70.8375372 C4.33823327,70.4075918 4.14665805,69.9740986 3.961114,69.5374243 C3.94035528,69.4885694 3.9196309,69.4395769 3.89898247,69.3905445 C3.71804137,68.9608729 3.54299406,68.5283027 3.37387306,68.092775 C3.34989483,68.0310246 3.3261014,67.9693858 3.30242672,67.9076882 C3.23684414,67.7367766 3.1721575,67.565372 3.10838853,67.3935217 C3.08834492,67.3395075 3.06827277,67.2851246 3.04829256,67.2306973 C2.97278476,67.0250039 2.89873549,66.8190895 2.82600419,66.6125539 C2.79955241,66.5374387 2.77326497,66.4622125 2.74715247,66.3869045 C2.52379741,65.7427582 2.31320371,65.0925031 2.11571923,64.4365687 C2.09041366,64.3525187 2.06527132,64.2681993 2.04034578,64.1837869 C1.99331005,64.0244967 1.94704282,63.8648632 1.90155202,63.7049027 C1.80055612,63.3497716 1.7033572,62.9929141 1.61003517,62.6344919 C1.43125103,61.9478312 1.26671101,61.2554972 1.1167309,60.5577551 C1.10610311,60.5083133 1.09550254,60.4586276 1.08497584,60.4089146 C0.988920937,59.9552801 0.89905456,59.499581 0.815424725,59.0417042 C0.799077318,58.9521992 0.783007493,58.8628329 0.767175475,58.7733845 C0.686923802,58.3199826 0.612760928,57.8643274 0.54480017,57.4066492 C0.53266444,57.3249199 0.520749667,57.2432877 0.50903239,57.1615918 C0.406067214,56.4437249 0.318318425,55.7206064 0.246171733,54.9928994 C0.241018131,54.9409139 0.235977917,54.8892568 0.231016373,54.8375766 C0.161825288,54.116941 0.107906653,53.3913799 0.0696330021,52.6616744 C0.0663057165,52.5982452 0.0630822472,52.5344889 0.059978312,52.4707012 L0.0530357724,52.3236203 C0.032803382,51.8813281 0.0183173708,51.437537 0.0096506538,50.9923202 C0.0032313787,50.6627913 0,50.331773 0,50 L0.00491621667,50.7084145 C0.00164233275,50.4726671 0,50.2365253 0,50 L0.00491621667,50.7084145 C0.00623132704,50.8031136 0.0078097057,50.897749 0.0096506538,50.9923202 C0.013940052,51.2125138 0.0196300563,51.4316559 0.0267256567,51.6504428 L0.0530357724,52.3236203 C0.0581949402,52.4364029 0.0637277531,52.5490879 0.0696330021,52.6616744 C0.107913215,53.3914234 0.161812111,54.1167353 0.231016373,54.8375766 C0.236018549,54.8896751 0.241055917,54.9412988 0.246171733,54.9928994 L0.231016373,54.8375766 C0.305904532,55.6176223 0.398715428,56.3924329 0.50903239,57.1615918 C0.520788916,57.2435576 0.532696176,57.3251355 0.54480017,57.4066492 L0.50903239,57.1615918 C0.586496337,57.7016908 0.672592121,58.2390031 0.767175475,58.7733845 C0.78303758,58.8630014 0.799112516,58.9523942 0.815424725,59.0417042 L0.767175475,58.7733845 C0.864224939,59.3216989 0.970210342,59.8669276 1.08497584,60.4089146 C1.09545822,60.4584193 1.10605769,60.5081009 1.1167309,60.5577551 L1.08497584,60.4089146 C1.24340113,61.1570876 1.41855756,61.8990834 1.61003517,62.6344919 C1.70333483,62.9928303 1.80052887,63.3496725 1.90155202,63.7049027 C1.94706367,63.864935 1.99331888,64.0245265 2.04034578,64.1837869 L1.90155202,63.7049027 C1.97112991,63.9495612 2.04252415,64.193455 2.11571923,64.4365687 L2.04034578,64.1837869 C2.25935662,64.9254849 2.49510463,65.6600032 2.74715247,66.3869045 C2.77329074,66.4622862 2.79956035,66.5374611 2.82600419,66.6125539 L2.74715247,66.3869045 C2.84508051,66.6693272 2.94546908,66.9506 3.04829256,67.2306973 L2.82600419,66.6125539 C2.91802915,66.8738779 3.01216409,67.1342073 3.10838853,67.3935217 L3.04829256,67.2306973 C3.13141715,67.4571337 3.21613306,67.6828018 3.30242672,67.9076882 L3.10838853,67.3935217 C3.19518814,67.6274371 3.28368799,67.8605265 3.37387306,68.092775 L3.30242672,67.9076882 C3.49358542,68.4058591 3.69248644,68.9001936 3.89898247,69.3905445 C3.9195727,69.4394391 3.94030542,69.4884517 3.961114,69.5374243 L3.89898247,69.3905445 C4.10377122,69.8768413 4.31602992,70.3592201 4.53561487,70.8375372 C4.55629155,70.8825761 4.5769122,70.9273175 4.59759694,70.9720231 L4.53561487,70.8375372 C4.6339909,71.0518275 4.7338374,71.2653027 4.83514144,71.4779496 L4.59759694,70.9720231 C4.70344241,71.2007856 4.81096595,71.428613 4.92015174,71.6554894 L4.83514144,71.4779496 C5.04947295,71.9278521 5.27032885,72.3740476 5.4975868,72.8164136 C5.54480483,72.9083275 5.59252996,73.0005184 5.64053304,73.0925412 L5.4975868,72.8164136 C5.75269963,73.3130001 6.01588006,73.804761 6.286955,74.2915231 C6.31221508,74.336882 6.33755651,74.3822203 6.36296642,74.427515 L6.286955,74.2915231 C6.40185543,74.4978467 6.51817422,74.7032722 6.63589821,74.9077865 L6.36296642,74.427515 C6.47983649,74.6358431 6.59815523,74.8432491 6.71790897,75.0497192 L6.63589821,74.9077865 C7.14440174,75.7911767 7.67912284,76.6575642 8.23899914,77.5058867 C8.29423713,77.589582 8.34954974,77.6728469 8.4051047,77.7559359 L8.23899914,77.5058867 C8.532199,77.9501421 8.83229762,78.3894432 9.13914243,78.8236374 C9.18988838,78.8954459 9.24110714,78.9675181 9.29251181,79.0394484 L9.13914243,78.8236374 C9.30646377,79.0604019 9.47579107,79.2956479 9.6470996,79.5293506 L10.058217,80.0822055 C10.1062096,80.1458275 10.1543508,80.2093312 10.2026399,80.272716 C10.306955,80.4096391 10.4117235,80.5457029 10.5171743,80.6812097 L10.2026399,80.272716 C10.3405945,80.4537969 10.4797568,80.6339079 10.6201148,80.8130372 L10.5171743,80.6812097 C10.9693438,81.2622582 11.4340579,81.8330624 11.9109098,82.3932156 C11.9734359,82.4666643 12.036142,82.5398965 12.0990556,82.6129448 L12.5404603,83.1185901 C12.6896046,83.2871562 12.8398691,83.4547082 12.9912422,83.6212344 C13.023056,83.6562329 13.0548937,83.6911586 13.0867802,83.726039 L13.0867781,83.7260367 L13.5474569,84.2232022 L13.5474569,84.2232022 L13.9674575,84.6649926 L13.9674575,84.6649926 Z" id="Foreground" stroke="#2A951C" fill="#65EA4D"></path>
            </g>
        </g>
    </g>
</svg>