<svg xmlns="http://www.w3.org/2000/svg" viewBox="0 0 102 102"><g fill="none" fill-rule="evenodd"><path d="M51 1c27.614 0 50 22.386 50 50s-22.386 50-50 50S1 78.614 1 51 23.386 1 51 1Zm27 21H24l23.25 31L24 84h54L54.75 53 78 22Z" stroke="#979797" fill="#046D00"/><path d="M78 22 54.75 53 78 84H24l23.25-31L24 22h54Z" stroke="#2A951C" fill="#48BF34"/><path d="m1.005 51.74.006.31c.006.317.016.634.028.951L47.25 53 24 84h54L54.75 53l46.21.001a50.655 50.655 0 0 0 .018-.508l-.012.355c.01-.266.018-.532.023-.799l-.01.444c.007-.254.012-.508.016-.763l-.006.32a50.98 50.98 0 0 0-.028.951C99.91 79.688 77.944 101 51 101S2.09 79.688 1.04 53.001l-.006-.153a50.743 50.743 0 0 1-.012-.355l.017.508A50.772 50.772 0 0 1 1 51l.005.74A51.013 51.013 0 0 1 1 51l.005.74Z" stroke="#2A951C" fill="#65EA4D"/></g></svg>