<?xml version="1.0" encoding="UTF-8"?>
<svg width="102px" height="102px" viewBox="0 0 102 102" version="1.1" xmlns="http://www.w3.org/2000/svg" xmlns:xlink="http://www.w3.org/1999/xlink">
    <title>TimerIcon/Pct50</title>
    <g id="Page-1" stroke="none" stroke-width="1" fill="none" fill-rule="evenodd">
        <g id="Artboard" transform="translate(-459.000000, -39.000000)">
            <g id="TimerIcon/Pct50" transform="translate(460.000000, 40.000000)">
                <path d="M50,0 C77.6142375,0 100,22.3857625 100,50 C100,77.6142375 77.6142375,100 50,100 C22.3857625,100 0,77.6142375 0,50 C0,22.3857625 22.3857625,0 50,0 Z M77,21 L23,21 L46.25,52 L23,83 L77,83 L53.75,52 L77,21 Z" id="Background" stroke="#979797" fill="#046D00"></path>
                <path d="M77,21 L53.75,52 L77,83 L23,83 L46.25,52 L23,21 L77,21 Z" id="Sablier" stroke="#2A951C" fill="#48BF34"></path>
                <path d="M0.00535327453,50.7392156 L0.0107867682,51.0490572 C0.0173327745,51.3670993 0.0268484059,51.6844117 0.0393070606,52.000968 L46.25,52 L23,83 L77,83 L53.75,52 L99.9606929,52.000968 C99.9627014,51.9499363 99.9646334,51.8988848 99.9664887,51.8478139 C99.9707841,51.7295888 99.9746735,51.6111049 99.9781501,51.4925174 L99.9664887,51.8478139 C99.9761424,51.5820854 99.9837225,51.315828 99.9892132,51.0490572 L99.9781501,51.4925174 C99.9855856,51.2388823 99.9911323,50.9847733 99.9947765,50.7302039 L99.9892132,51.0490572 C99.9963927,50.7002374 100,50.35054 100,50 C100,50.2438128 99.9982549,50.4872181 99.9947765,50.7302039 C99.9932457,50.8370381 99.9913943,50.9430882 99.9892132,51.0490572 C99.9861787,51.1965859 99.9824855,51.3446322 99.9781501,51.4925174 C99.9746694,51.6112252 99.9707844,51.7295719 99.9664887,51.8478139 C99.9646295,51.8989874 99.9626994,51.9499875 99.9606929,52.000968 C98.9103922,78.6875819 76.9440871,100 50,100 C23.0559129,100 1.08960778,78.6875819 0.0393070606,52.000968 L0.0393070606,52.000968 L0.0335112781,51.8478139 C0.0292156385,51.7295719 0.0253305816,51.6112252 0.0218574905,51.4927751 L0.0393070606,52.000968 C0.0268395785,51.6841874 0.0173192916,51.3666496 0.0107728584,51.0483812 C0.00360728817,50.7002374 0,50.35054 0,50 L0.00535327453,50.7392156 C0.00178850904,50.4932363 0,50.246827 0,50 L0.00535327453,50.7392156 L0.00535327453,50.7392156 Z" id="Foreground" stroke="#2A951C" fill="#65EA4D"></path>
            </g>
        </g>
    </g>
</svg>