<?xml version="1.0" encoding="UTF-8"?>
<svg width="102px" height="102px" viewBox="0 0 102 102" version="1.1" xmlns="http://www.w3.org/2000/svg" xmlns:xlink="http://www.w3.org/1999/xlink">
    <title>TimerIcon/Pct90</title>
    <g id="Page-1" stroke="none" stroke-width="1" fill="none" fill-rule="evenodd">
        <g id="Artboard" transform="translate(-319.000000, -39.000000)">
            <g id="TimerIcon/Pct90" transform="translate(320.000000, 40.000000)">
                <path d="M50,0 C77.6142375,0 100,22.3857625 100,50 C100,77.6142375 77.6142375,100 50,100 C22.3857625,100 0,77.6142375 0,50 C0,22.3857625 22.3857625,0 50,0 Z M77,21 L23,21 L46.25,52 L23,83 L77,83 L53.75,52 L77,21 Z" id="Background" stroke="#979797" fill="#046D00"></path>
                <path d="M77,21 L53.75,52 L77,83 L23,83 L46.25,52 L23,21 L77,21 Z" id="Sablier" stroke="#2A951C" fill="#48BF34"></path>
                <path d="M80.1462948,10.1066426 L80.2488638,10.1844795 C80.3988916,10.2986352 80.5482547,10.4136194 80.6969464,10.5294255 C80.7355161,10.5594652 80.7738384,10.5894017 80.8121158,10.6193929 C81.1829329,10.909932 81.5497551,11.2057711 81.9122586,11.5066332 C81.9599625,11.5462244 82.0080735,11.5863055 82.056108,11.6264752 C82.1762322,11.7269333 82.2954615,11.8275903 82.4142114,11.9287932 C82.4970395,11.9993819 82.5797074,12.0702992 82.6621403,12.1414811 C82.988645,12.4234172 83.311803,12.709814 83.631185,13.0002897 C93.6872969,22.1462529 100,35.335921 100,50 C100,77.6142375 77.6142375,100 50,100 C22.3857625,100 0,77.6142375 0,50 C0,35.335921 6.31270308,22.1462529 16.368815,13.0002897 L83.631185,13.0002897 C83.311916,12.7099168 82.9888737,12.4236198 82.6621403,12.1414811 C82.5794997,12.0701212 82.496972,11.9993246 82.4142114,11.9287932 L82.6621403,12.1414811 C82.4615149,11.9682383 82.2594977,11.7965633 82.056108,11.6264752 L82.4142114,11.9287932 C82.2478313,11.7869982 82.0805101,11.6462747 81.9122586,11.5066332 L82.056108,11.6264752 C81.6469473,11.2843075 81.2322316,10.9485618 80.8121158,10.6193929 C80.7736261,10.5892358 80.7353086,10.5593033 80.6969464,10.5294255 L80.8121158,10.6193929 C80.6254418,10.4731301 80.4377015,10.3281659 80.2489087,10.1845137 L80.6969464,10.5294255 C80.4855465,10.3647802 80.2727893,10.2017959 80.0586943,10.0404923 L80.2489087,10.1845137 C79.8358046,9.87018347 79.4176607,9.56213552 78.9946197,9.26051233 C78.9188804,9.20651228 78.8433924,9.15300583 78.7677499,9.09970392 L78.9946197,9.26051233 C78.7720958,9.10185549 78.5482169,8.94497629 78.3230038,8.78989547 L78.7677499,9.09970392 C78.5870427,8.97236751 78.4054538,8.84619841 78.2229942,8.72120759 L78.3230038,8.78989547 C78.1604518,8.67796286 77.9972047,8.56696712 77.8332704,8.45691604 L78.2229942,8.72120759 C77.9916645,8.56273917 77.7589352,8.40616474 77.5248287,8.25150665 C77.1520406,8.00523103 76.7757555,7.76381177 76.3960683,7.52734211 C76.3592951,7.5044399 76.3226298,7.48167066 76.2859329,7.45894758 L76.3960683,7.52734211 C75.9521725,7.25088325 75.5036267,6.98118959 75.050575,6.71840534 C74.9663731,6.66956611 74.8822228,6.62108413 74.7979185,6.57284055 L75.050575,6.71840534 C74.8577917,6.60658494 74.6641925,6.49601562 74.4697886,6.38670849 L74.7979185,6.57284055 C74.5783556,6.44719457 74.3577484,6.32316575 74.1361132,6.20077031 L74.4697886,6.38670849 C74.2549041,6.26588579 74.0390363,6.14660524 73.8222004,6.02888183 L74.1361132,6.20077031 C73.9613261,6.1042462 73.7858997,6.00873794 73.6098418,5.91425349 L73.8222004,6.02888183 C73.3264475,5.75973039 72.8256334,5.49871843 72.3199374,5.2460253 C72.2713225,5.22173286 72.2227521,5.19756173 72.1741369,5.17346734 L72.3199374,5.2460253 C72.1320225,5.15212541 71.9434336,5.05937421 71.7541797,4.96778092 L72.1741369,5.17346734 C71.9448234,5.05981627 71.7145133,4.94787298 71.4832232,4.83765411 L71.7541797,4.96778092 C71.491946,4.84086753 71.2284357,4.71617724 70.9636733,4.59373452 L71.4832232,4.83765411 C71.2787434,4.74021143 71.0734976,4.64411656 70.8674974,4.54938099 L70.9636733,4.59373452 C70.719646,4.48088102 70.4745551,4.36993684 70.2284197,4.26092113 L70.8674974,4.54938099 C70.5906381,4.42205867 70.3124161,4.29719162 70.0328591,4.17480773 L70.2284197,4.26092113 C70.0119616,4.1650498 69.7946957,4.07066994 69.576635,3.97779458 L70.0328591,4.17480773 C69.800521,4.07309521 69.5672608,3.97309784 69.3330947,3.87483165 L69.576635,3.97779458 C69.3373452,3.8758774 69.0970983,3.77577193 68.8559116,3.67749539 L69.3330947,3.87483165 C69.1233671,3.78682093 68.9129127,3.70019889 68.701743,3.61497704 L68.8559116,3.67749539 C68.587245,3.56802161 68.3174123,3.46081727 68.0464372,3.35590617 L68.701743,3.61497704 C68.40686,3.49597095 68.1105823,3.37969525 67.812941,3.26618125 L68.0464372,3.35590617 C67.8346122,3.27389571 67.6220891,3.19328659 67.4088793,3.11409019 L67.812941,3.26618125 C67.5938361,3.18261931 67.3739923,3.10055393 67.1534222,3.01999762 L67.4088793,3.11409019 C67.1746881,3.02710031 66.9396684,2.94181488 66.7038353,2.85824897 L67.1534222,3.01999762 C66.9134293,2.93234777 66.6725766,2.84648446 66.43088,2.76242377 L66.7038353,2.85824897 C66.1948317,2.67788691 65.6820389,2.50553497 65.1656084,2.34134471 C65.0595951,2.30764044 64.9537704,2.27438628 64.8477947,2.24147515 L65.1656084,2.34134471 C64.9284251,2.26593634 64.6904745,2.19224955 64.4517713,2.120299 L64.8477947,2.24147515 C64.637004,2.17601333 64.4256159,2.11190862 64.2136405,2.04917123 L64.4517713,2.120299 C64.2049876,2.0459128 63.9573995,1.97338239 63.7090231,1.90272399 L64.2136405,2.04917123 C63.659714,1.88522813 63.1017776,1.73062198 62.5400136,1.58553511 C62.3986345,1.54902208 62.2573226,1.51318905 62.1157723,1.47795921 L62.5400136,1.58553511 C62.3365339,1.53298239 62.1325521,1.48167861 61.9280768,1.43163242 L62.1157723,1.47795921 C61.8452574,1.41063194 61.5738714,1.34550766 61.3016347,1.28260652 L61.9280768,1.43163242 C61.6938715,1.3743097 61.4590187,1.31863685 61.2235315,1.26462691 L61.3016347,1.28260652 C60.7956029,1.16568631 60.2866313,1.0564473 59.7748493,0.95501889 C59.706833,0.94153965 59.639244,0.92829082 59.5716063,0.915178318 L59.7748493,0.95501889 C59.5336864,0.907223611 59.2918995,0.861162677 59.0495021,0.816849631 L59.5716063,0.915178318 C59.3182758,0.866066679 59.0642629,0.818867461 58.8095832,0.773596291 L59.0495021,0.816849631 C58.5088258,0.718007734 57.9651119,0.627862093 57.418511,0.546562987 C57.3422023,0.53521267 57.2655317,0.523990765 57.1888048,0.512943072 L57.418511,0.546562987 C57.141543,0.505367947 56.8638337,0.466444297 56.5854027,0.429811587 L57.1888048,0.512943072 C56.9439801,0.477691443 56.6985821,0.444213576 56.4526242,0.412522917 L56.5854027,0.429811587 C56.0457612,0.358811832 55.5034084,0.296417841 54.9584869,0.242771958 C54.908536,0.237854068 54.858195,0.232974526 54.8078322,0.22816969 L54.9584869,0.242771958 C54.7118293,0.218489259 54.4646453,0.195998962 54.2169483,0.175314268 L54.8078322,0.22816969 C54.5214082,0.200843568 54.2342793,0.175933814 53.9464662,0.153461047 L54.2169483,0.175314268 C53.9697691,0.15467282 53.7220789,0.135829434 53.4738909,0.118797227 L53.9464662,0.153461047 C53.7055881,0.134653013 53.4642306,0.117551953 53.222406,0.102169953 L53.4738909,0.118797227 C53.2410416,0.10281766 53.0077541,0.0884323189 52.7740392,0.0756520361 L53.222406,0.102169953 C52.8740355,0.0800107759 52.5246954,0.0614191715 52.1744219,0.0464312746 C52.0400346,0.0406794197 51.9049306,0.0354378561 51.7696901,0.0307333919 L52.1744219,0.0464312746 C51.9537452,0.036988713 51.732698,0.0289765194 51.5112894,0.0224037297 L51.7696901,0.0307333919 C51.4936831,0.0211322362 51.2171075,0.0137681596 50.9399808,0.00865873364 L51.5112894,0.0224037297 C51.2662702,0.0151300297 51.0208082,0.00961909285 50.7749159,0.00588316504 L50.7748829,0.00588266401 L50,0 L50,0 C50.2587691,0 50.5170792,0.00196576116 50.7749159,0.00588316504 C50.8299372,0.00671908645 50.8849698,0.00764448881 50.9399808,0.00865873364 C51.1305241,0.0121709327 51.3210402,0.0167559462 51.5112894,0.0224037297 C51.5977792,0.0249720569 51.6837622,0.0277443119 51.7696901,0.0307333919 C51.904455,0.0354201807 52.0395077,0.0406584145 52.1744219,0.0464312746 C52.3749863,0.0550155413 52.5746682,0.0647497899 52.7740392,0.0756520361 C52.9233199,0.0838136173 53.0729522,0.0926634827 53.222406,0.102169953 C53.3064581,0.107516764 53.3902028,0.113054028 53.4738909,0.118797227 C53.6314047,0.129605797 53.7890378,0.141168863 53.9464662,0.153461047 C54.0370531,0.160535142 54.1270345,0.167805744 54.2169483,0.175314268 C54.4138909,0.191758499 54.6110279,0.20939369 54.8078322,0.22816969 C54.8579473,0.232950706 54.908228,0.237824124 54.9584869,0.242771958 C55.4589787,0.292047585 55.9569384,0.348655837 56.4526242,0.412522917 C56.4967484,0.418207935 56.5410847,0.42398074 56.5854027,0.429811587 C56.7870737,0.456346073 56.9881318,0.484048728 57.1888048,0.512943072 C57.2652596,0.523951181 57.3419136,0.535170222 57.418511,0.546562987 C57.8845321,0.615879928 58.3481521,0.691573551 58.8095832,0.773596291 C58.8894376,0.787790516 58.9695031,0.802224882 59.0495021,0.816849631 C59.2240275,0.848755842 59.3979772,0.881517897 59.5716063,0.915178318 C59.6395308,0.928346701 59.7072146,0.941614589 59.7748493,0.95501889 C60.2599931,1.05116304 60.7430827,1.15443403 61.2235315,1.26462691 C61.2495731,1.27059966 61.2756078,1.27659293 61.3016347,1.28260652 C61.5109984,1.33098095 61.7197936,1.38065425 61.9280768,1.43163242 C61.9905043,1.44691143 62.0531616,1.46237631 62.1157723,1.47795921 C62.2575825,1.51325445 62.3989187,1.54909453 62.5400136,1.58553511 C62.9313587,1.6866052 63.321152,1.79238198 63.7090231,1.90272399 C63.8775826,1.95067592 64.0457956,1.99949494 64.2136405,2.04917123 C64.2931442,2.0727017 64.3724993,2.0964046 64.4517713,2.120299 C64.5840632,2.160175 64.7160457,2.20055999 64.8477947,2.24147515 C64.953861,2.27441433 65.059811,2.30770825 65.1656084,2.34134471 C65.5896225,2.47614938 66.0115214,2.61657323 66.43088,2.76242377 C66.5219161,2.79408539 66.6129361,2.82603945 66.7038353,2.85824897 C66.8539559,2.91144281 67.003856,2.96537327 67.1534222,3.01999762 C67.2389939,3.05125096 67.323991,3.0825586 67.4088793,3.11409019 C67.5434471,3.16407322 67.6783335,3.21484481 67.812941,3.26618125 C67.8908529,3.29589511 67.968692,3.32580625 68.0464372,3.35590617 C68.2659541,3.44089734 68.484228,3.52719439 68.701743,3.61497704 C68.7531584,3.63572672 68.8045563,3.6565696 68.8559116,3.67749539 C69.0154565,3.74250572 69.1744834,3.80827156 69.3330947,3.87483165 C69.4141449,3.90884307 69.4954451,3.94321454 69.576635,3.97779458 C69.7293787,4.04285211 69.8813151,4.10846507 70.0328591,4.17480773 C70.0980057,4.20332719 70.1632493,4.23205656 70.2284197,4.26092113 C70.4422282,4.35561888 70.6552632,4.45177853 70.8674974,4.54938099 C70.89953,4.56411209 70.9316108,4.57890683 70.9636733,4.59373452 C71.1374861,4.67411707 71.3106275,4.75540547 71.4832232,4.83765411 C71.5735016,4.88067462 71.6639162,4.92409607 71.7541797,4.96778092 C71.8946098,5.03574541 72.034558,5.10429002 72.1741369,5.17346734 C72.2228058,5.19758839 72.2713941,5.22176852 72.3199374,5.2460253 C72.7534731,5.4626593 73.1835087,5.68545462 73.6098418,5.91425349 C73.6808186,5.95234469 73.7515609,5.99053063 73.8222004,6.02888183 C73.9270202,6.08578982 74.0316808,6.14309874 74.1361132,6.20077031 C74.247582,6.26232754 74.3588164,6.32431237 74.4697886,6.38670849 C74.5794126,6.44834651 74.6887945,6.5103938 74.7979185,6.57284055 C74.8823769,6.62117265 74.9665534,6.66967017 75.050575,6.71840534 C75.4660537,6.9593934 75.8779456,7.20631786 76.2859329,7.45894758 C76.3227979,7.48177495 76.3594489,7.50453551 76.3960683,7.52734211 C76.7756617,7.76375166 77.1519918,8.00519889 77.5248287,8.25150665 C77.6279133,8.31960756 77.7307263,8.38807699 77.8332704,8.45691604 C77.963528,8.54435898 78.0934805,8.63248645 78.2229942,8.72120759 C78.2563814,8.744079 78.2897072,8.76696758 78.3230038,8.78989547 C78.4718459,8.89238758 78.6200922,8.99565606 78.7677499,9.09970392 C78.8436284,9.15317253 78.9192018,9.20674034 78.9946197,9.26051233 C79.3293938,9.49919726 79.6615004,9.74220523 79.9904619,9.98917554 L80.1462948,10.1066426 L80.1462948,10.1066426 Z M77,21 L23,21 L46.25,52 L23,83 L77,83 L53.75,52 L77,21 Z M20.9640832,9.28998825 L21.0214537,9.24905696 C21.0869057,9.20242937 21.1524747,9.15595553 21.2181603,9.10963596 C21.3703177,9.00233753 21.5233864,8.89567009 21.6770766,8.78984016 C21.7102928,8.76696758 21.7436186,8.744079 21.7769734,8.7212298 C21.9066124,8.63242327 22.0365645,8.54429643 22.1669514,8.45676717 C22.2692737,8.38807699 22.3720867,8.31960756 22.4751667,8.25150966 C22.8480989,8.00514016 23.224428,7.76369464 23.6041601,7.52719988 C23.6405511,7.50453551 23.6772021,7.48177495 23.7138847,7.45906051 C24.122142,7.20626482 24.5340328,6.95934213 24.9497168,6.71823606 C25.0334466,6.66967017 25.1176231,6.62117265 25.2019537,6.5729137 C25.31129,6.51034575 25.4206716,6.4482989 25.5303092,6.38665351 C25.6411836,6.32431237 25.752418,6.26232754 25.8639126,6.20075606 C25.9684019,6.14305333 26.0730622,6.08574482 26.1779492,6.02880065 C26.2484391,5.99053063 26.3191814,5.95234469 26.3900258,5.91432453 C26.8165716,5.68541251 27.2466061,5.4626188 27.68023,5.24594167 C27.7286059,5.22176852 27.7771942,5.19758839 27.8258273,5.17348507 C27.9655191,5.10425211 28.1054669,5.03570801 28.2457801,4.96780037 C28.3360838,4.92409607 28.4264984,4.88067462 28.5170634,4.83751756 C28.6894475,4.7553701 28.8625884,4.6740823 29.036268,4.59376166 C29.0683892,4.57890683 29.10047,4.56411209 29.1325692,4.54935036 C29.3448098,4.45174537 29.5578441,4.35558643 29.7716668,4.26088285 C29.8367507,4.23205656 29.9019943,4.20332719 29.9673108,4.17473336 C30.1187556,4.10843442 30.2706915,4.04282194 30.4230151,3.97794359 C30.5045549,3.94321454 30.5858551,3.90884307 30.6672647,3.87468083 C30.825585,3.8082431 30.9846114,3.74247775 31.1440486,3.67751162 C31.1954437,3.6565696 31.2468416,3.63572672 31.298282,3.61496694 C31.5158383,3.527168 31.7341115,3.44087158 31.9531311,3.35607333 C32.031308,3.32580625 32.1091471,3.29589511 32.1870798,3.26617329 C32.3196917,3.21559816 32.4525308,3.1655874 32.5856376,3.11612728 C32.6812847,3.08058525 32.7776012,3.04513392 32.8740564,3.00997111 C33.0049959,2.96223686 33.1362466,2.91501458 33.2677505,2.86832707 C33.369324,2.83226654 33.4706949,2.79664807 33.5722145,2.76134762 C34.0118244,2.60848489 34.4543672,2.46154061 34.899606,2.32066043 C34.9585059,2.30202366 35.0174307,2.28349997 35.0764024,2.26508255 C35.2332722,2.21609024 35.3905736,2.16781989 35.5482032,2.12030667 C35.6275007,2.0964046 35.7068558,2.0727017 35.7862933,2.04919081 C35.9542561,1.99947985 36.1224685,1.95066119 36.2910441,1.90270487 C36.678848,1.79238198 37.0686413,1.6866052 37.460295,1.58545541 C37.6011272,1.5490828 37.742463,1.51324299 37.8840374,1.47800658 C37.9468384,1.46237631 38.0094957,1.44691143 38.0721995,1.43156481 C38.28025,1.38064378 38.4890445,1.33097085 38.6983419,1.28261194 C38.7243922,1.27659293 38.7504269,1.27059966 38.7764693,1.26462672 C39.2511029,1.15576799 39.7282725,1.05367286 40.2079124,0.95843847 C40.2850733,0.943118186 40.3620992,0.928013991 40.4391883,0.913086881 C40.6091336,0.880178984 40.7795512,0.848101463 40.9502718,0.816890963 C41.0304969,0.802224882 41.1105624,0.787790516 41.190694,0.773547019 C41.6518794,0.691568276 42.1154977,0.615875227 42.5812119,0.5466042 C42.6580864,0.535170222 42.7347404,0.523951181 42.8114508,0.512906278 C43.0118947,0.484045028 43.2129521,0.456342583 43.4143872,0.429839222 C43.4589153,0.42398074 43.5032516,0.418207935 43.547606,0.412493249 C44.0430843,0.348653167 44.5410421,0.292045346 45.0411638,0.242806344 C45.091772,0.237824124 45.1420527,0.232950706 45.1923552,0.228151817 C45.3889897,0.209392083 45.586126,0.191757027 45.7835883,0.175269462 C45.8729655,0.167805744 45.9629469,0.160535142 46.0529953,0.153503092 C46.2109767,0.141167778 46.3686092,0.129604801 46.5264431,0.118774311 C46.6097972,0.113054028 46.6935419,0.107516764 46.7773427,0.102185936 C46.9270596,0.0926627698 47.0766913,0.0838129723 47.2264986,0.0756226278 C47.4253318,0.0647497899 47.6250137,0.0550155413 47.825,0.0464560155 C47.9605002,0.0406581012 48.0955523,0.0354199076 48.2307409,0.0307184009 C48.3162378,0.0277443119 48.4022208,0.0249720569 48.4882584,0.0224171572 C48.6789649,0.0167558169 48.8694803,0.0121708388 49.0602568,0.00865435502 C49.3726533,0.00289465394 49.6859886,0 50,0 L49.2250871,0.00588311962 C49.4829228,0.00196574597 49.7412319,0 50,0 L49.2250871,0.00588311962 C49.1701221,0.00671821865 49.1151786,0.00764200938 49.0602568,0.00865435502 C48.869169,0.0121774675 48.6785801,0.0167655217 48.4882584,0.0224171572 L49.0602568,0.00865435502 C48.7831948,0.0137612932 48.5066837,0.0211218282 48.2307409,0.0307184009 L48.4882584,0.0224171572 C48.2668076,0.028993172 48.0457185,0.0370091384 47.825,0.0464560155 L48.2307409,0.0307184009 C47.8951423,0.0423896471 47.5603843,0.0573682518 47.2264986,0.0756226278 C47.0762451,0.0838389716 46.9267048,0.0926845542 46.7773427,0.102185936 L47.2264986,0.0756226278 C46.9927155,0.0884041415 46.7593601,0.10279165 46.5264431,0.118774311 L46.7773427,0.102185936 C46.535422,0.11757526 46.2939688,0.134685013 46.0529953,0.153503092 L46.5264431,0.118774311 C46.2783229,0.135800208 46.0307003,0.154636294 45.7835883,0.175269462 L46.0529953,0.153503092 C45.7654253,0.175959982 45.4785384,0.200849745 45.1923552,0.228151817 L45.7835883,0.175269462 C45.5355947,0.195976245 45.2881155,0.218492955 45.0411638,0.242806344 L45.1923552,0.228151817 C44.641449,0.280708639 44.0931503,0.342204685 43.547606,0.412493249 C43.5030444,0.418234817 43.4587066,0.424007997 43.4143872,0.429839222 L43.547606,0.412493249 C43.3016567,0.444181657 43.0562671,0.477657147 42.8114508,0.512906278 L43.4143872,0.429839222 C43.1359337,0.466476089 42.8582021,0.505404267 42.5812119,0.5466042 L42.8114508,0.512906278 C42.2683282,0.591106128 41.728027,0.678035301 41.190694,0.773547019 C41.1103244,0.787833239 41.0302648,0.802266924 40.9502718,0.816890963 L41.190694,0.773547019 C40.9395386,0.818190247 40.6890317,0.864708531 40.4391883,0.913086881 L40.9502718,0.816890963 C40.7021742,0.862247245 40.4547163,0.909434587 40.2079124,0.95843847 L40.4391883,0.913086881 C39.8815884,1.02105753 39.3272932,1.13829302 38.7764693,1.26462672 C38.7504464,1.27059515 38.7243902,1.27659337 38.6983419,1.28261194 L38.7764693,1.26462672 C38.5410744,1.31861549 38.3063135,1.37426586 38.0721995,1.43156481 L38.6983419,1.28261194 C38.4260491,1.34552615 38.1546076,1.41066442 37.8840374,1.47800658 L38.0721995,1.43156481 C37.867735,1.48160711 37.6637639,1.53290686 37.460295,1.58545541 L37.8840374,1.47800658 C37.349588,1.61102558 36.8185385,1.75264347 36.2910441,1.90270487 C36.1223842,1.95068545 35.9541546,1.99950941 35.7862933,2.04919081 L36.2910441,1.90270487 C36.0426367,1.97337174 35.7950176,2.04591108 35.5482032,2.12030667 L35.7862933,2.04919081 C35.5489219,2.11944492 35.3122868,2.19141362 35.0764024,2.26508255 L35.5482032,2.12030667 C35.3313795,2.18566238 35.1151767,2.25245063 34.899606,2.32066043 L35.0764024,2.26508255 C34.5715204,2.42276197 34.0700775,2.58823056 33.5722145,2.76134762 C33.4704837,2.79672184 33.369042,2.83236582 33.2677505,2.86832707 L33.5722145,2.76134762 C33.3387028,2.84254439 33.1059786,2.92542372 32.8740564,3.00997111 L33.2677505,2.86832707 C33.0396128,2.94932223 32.8122372,3.03192686 32.5856376,3.11612728 L32.8740564,3.00997111 C32.6442722,3.0937391 32.4152753,3.17914454 32.1870798,3.26617329 L32.5856376,3.11612728 C32.3741224,3.19472259 32.1632831,3.27470831 31.9531311,3.35607333 L32.1870798,3.26617329 C31.88944,3.3796866 31.5931636,3.4959616 31.298282,3.61496694 L31.9531311,3.35607333 C31.6822877,3.46093633 31.4125856,3.56809035 31.1440486,3.67751162 L31.298282,3.61496694 C31.0872246,3.70014336 30.8768817,3.78671849 30.6672647,3.87468083 L31.1440486,3.67751162 C30.9027577,3.77583085 30.6624075,3.87598059 30.4230151,3.97794359 L30.6672647,3.87468083 C30.4330349,3.97297157 30.1997116,4.07299443 29.9673108,4.17473336 L30.4230151,3.97794359 C30.205101,4.07075852 29.9879805,4.16507595 29.7716668,4.26088285 L29.9673108,4.17473336 C29.6877191,4.29713122 29.4094626,4.42201286 29.1325692,4.54935036 L29.7716668,4.26088285 C29.5254826,4.3699196 29.2803432,4.4808856 29.036268,4.59376166 L29.1325692,4.54935036 C28.9266428,4.64405159 28.7214704,4.74011116 28.5170634,4.83751756 L29.036268,4.59376166 C28.7715119,4.71620192 28.5080077,4.84088965 28.2457801,4.96780037 L28.5170634,4.83751756 C28.2856649,4.94778626 28.0552473,5.05978098 27.8258273,5.17348507 L28.2457801,4.96780037 C28.0565959,5.05936016 27.8680761,5.15207699 27.68023,5.24594167 L27.8258273,5.17348507 C27.3427522,5.41290451 26.8640999,5.65990281 26.3900258,5.91432453 C26.3193737,5.952241 26.24861,5.99043815 26.1779492,6.02880065 L26.3900258,5.91432453 C26.2140211,6.00878116 26.0386473,6.10426099 25.8639126,6.20075606 L26.1779492,6.02880065 C25.9610958,6.14653255 25.7452108,6.26582183 25.5303092,6.38665351 L25.8639126,6.20075606 C25.6422257,6.32317987 25.4215673,6.44723783 25.2019537,6.5729137 L25.5303092,6.38665351 C25.3359705,6.49592338 25.142436,6.6064546 24.9497168,6.71823606 L25.2019537,6.5729137 C24.7004173,6.85992247 24.2043298,7.15536924 23.7138847,7.45906051 C23.6774588,7.48161566 23.6407936,7.50438473 23.6041601,7.52719988 L23.7138847,7.45906051 C23.2968595,7.71728903 22.8839139,7.98147839 22.4751667,8.25150966 C22.3722249,8.31951591 22.2694538,8.38795688 22.1669514,8.45676717 C22.036375,8.54442464 21.906455,8.63253053 21.7769734,8.7212298 L22.1669514,8.45676717 C22.0029695,8.5668489 21.8396753,8.67787583 21.6770766,8.78984016 L21.7769734,8.7212298 C21.589782,8.84946228 21.403507,8.97893495 21.2181603,9.10963596 L21.6770766,8.78984016 C21.4570832,8.94132606 21.2383629,9.09452794 21.0209351,9.24942647 L21.2181603,9.10963596 C20.7874614,9.41335218 20.361775,9.7237012 19.9412498,10.0405345 C19.8778951,10.0882669 19.8145053,10.1362625 19.7512336,10.1844054 L19.9412498,10.0405345 C19.7271052,10.2018758 19.5142991,10.3648987 19.3028509,10.5295834 L19.7512336,10.1844054 C19.5624992,10.3280121 19.3748167,10.47293 19.1881996,10.6191457 L19.3028509,10.5295834 C18.8928214,10.8489316 18.4878983,11.1745288 18.0882248,11.506232 C18.0396759,11.5465253 17.9915863,11.5865893 17.9435732,11.6267418 L18.0882248,11.506232 C17.9127841,11.6518365 17.738355,11.7986174 17.5649494,11.9465628 L17.9435732,11.6267418 C17.7565897,11.7831126 17.5707663,11.9408245 17.3861179,12.0998629 L17.5649494,11.9465628 C17.3655788,12.116661 17.1675613,12.2882984 16.9709153,12.4614567 L17.3861179,12.0998629 C17.2028908,12.257677 17.0208208,12.4167971 16.839922,12.5772088 L16.9709153,12.4614567 C16.7687591,12.6394671 16.5680524,12.8190847 16.368815,13.0002897 L16.368918,13.000196 C16.5250205,12.8582227 16.6820251,12.7172237 16.839922,12.5772088 C16.8836561,12.5384281 16.9272519,12.4999049 16.9709153,12.4614567 C17.1085444,12.3402653 17.2469976,12.2196877 17.3861179,12.0998629 C17.4455843,12.0486442 17.5052061,11.9975344 17.5649494,11.9465628 C17.6905687,11.839387 17.8168044,11.7327562 17.9435732,11.6267418 C17.9919265,11.5863055 18.0400375,11.5462244 18.0882248,11.506232 C18.4503447,11.2056898 18.8171662,10.9098529 19.1881996,10.6191457 C19.2261616,10.5894017 19.2644839,10.5594652 19.3028509,10.5295834 C19.4518432,10.4135437 19.6012061,10.2985603 19.7512336,10.1844054 C19.7852615,10.1585137 19.8194661,10.1325566 19.8537052,10.1066426 L20.009635,9.9891028 C20.3249163,9.75240421 20.6430865,9.51934523 20.9640832,9.28998825 Z" id="Foreground" stroke="#2A951C" fill="#65EA4D"></path>
            </g>
        </g>
    </g>
</svg>