<svg xmlns="http://www.w3.org/2000/svg" viewBox="0 0 102 102"><g fill="none" fill-rule="evenodd"><path d="M51 1c27.614 0 50 22.386 50 50s-22.386 50-50 50S1 78.614 1 51 23.386 1 51 1Zm27 21H24l23.25 31L24 84h54L54.75 53 78 22Z" stroke="#979797" fill="#046D00"/><path d="M78 22 54.75 53 78 84H24l23.25-31L24 22h54Z" stroke="#2A951C" fill="#48BF34"/><path d="m81.146 11.107.103.077A50.212 50.212 0 0 1 84.63 14C94.687 23.146 101 36.336 101 51c0 27.614-22.386 50-50 50S1 78.614 1 51c0-14.664 6.313-27.854 16.369-37H84.63a50.29 50.29 0 0 0-1.217-1.071l.248.212c-.2-.173-.403-.344-.606-.515l.358.303a50.267 50.267 0 0 0-.502-.422l.144.12a50.244 50.244 0 0 0-1.36-1.098l.116.09a50.213 50.213 0 0 0-.563-.434l.448.344a50.207 50.207 0 0 0-.638-.489l.19.145a50.176 50.176 0 0 0-1.481-1.085l.227.16a50.133 50.133 0 0 0-.672-.47l.445.31c-.181-.128-.363-.254-.545-.379l.1.069a50.106 50.106 0 0 0-.49-.333l.39.264a50.095 50.095 0 0 0-1.937-1.262l.11.068a49.986 49.986 0 0 0-1.598-.954l.253.145a49.935 49.935 0 0 0-.581-.331l.328.186c-.22-.126-.44-.25-.662-.372l.334.186c-.215-.121-.431-.24-.648-.358l.314.172a49.89 49.89 0 0 0-.526-.287l.212.115a49.849 49.849 0 0 0-1.648-.856l.146.073a49.799 49.799 0 0 0-.566-.278l.42.205c-.23-.113-.46-.225-.69-.335l.27.13a49.767 49.767 0 0 0-.79-.374l.52.244a49.76 49.76 0 0 0-.617-.289l.097.045c-.244-.113-.49-.224-.736-.333l.64.288a49.729 49.729 0 0 0-.835-.374l.195.086c-.216-.096-.433-.19-.651-.283l.456.197a49.7 49.7 0 0 0-.7-.3l.244.103c-.24-.102-.48-.202-.721-.3l.477.197c-.21-.088-.42-.175-.631-.26l.154.062c-.269-.109-.539-.216-.81-.321l.656.259a49.653 49.653 0 0 0-.89-.349l.234.09a49.64 49.64 0 0 0-.637-.242l.404.152c-.22-.083-.439-.165-.66-.246l.256.094c-.234-.087-.47-.172-.705-.256l.45.162a49.62 49.62 0 0 0-.723-.258l.273.096a49.609 49.609 0 0 0-1.856-.617l.318.1c-.238-.075-.476-.149-.714-.22l.396.12c-.211-.065-.422-.13-.634-.192l.238.071a49.606 49.606 0 0 0-.743-.217l.505.146a49.615 49.615 0 0 0-2.098-.571l.424.108a49.64 49.64 0 0 0-.612-.154l.188.046c-.27-.067-.542-.132-.814-.195l.626.149a49.66 49.66 0 0 0-.704-.167l.078.018a49.705 49.705 0 0 0-1.73-.368l.203.04a49.769 49.769 0 0 0-.725-.138l.522.098c-.254-.049-.508-.096-.762-.141l.24.043a49.855 49.855 0 0 0-1.861-.304l.23.034c-.277-.042-.555-.08-.834-.117l.604.083c-.245-.035-.49-.069-.736-.1l.132.017a50.103 50.103 0 0 0-1.777-.202l.15.015a50.257 50.257 0 0 0-.741-.068l.59.053a50.287 50.287 0 0 0-.86-.075l.27.022c-.247-.02-.495-.04-.743-.056l.472.034c-.24-.018-.482-.035-.724-.05l.252.016c-.233-.016-.466-.03-.7-.043l.448.026a50.554 50.554 0 0 0-1.452-.071l.404.015a50.71 50.71 0 0 0-.663-.024l.259.009c-.276-.01-.553-.017-.83-.022l.571.013c-.245-.007-.49-.012-.736-.016L51 1a51.01 51.01 0 0 1 4.958.243 50.117 50.117 0 0 1 7.582 1.343 49.612 49.612 0 0 1 13.746 5.873 50.057 50.057 0 0 1 3.704 2.53l.156.118ZM78 22H24l23.25 31L24 84h54L54.75 53 78 22ZM21.964 10.29l.057-.04a50.15 50.15 0 0 1 8.112-4.7A49.733 49.733 0 0 1 41.95 1.816a49.823 49.823 0 0 1 7.538-.795A50.852 50.852 0 0 1 51 1l-.775.006C50.483 1.002 50.741 1 51 1l-.775.006a50.908 50.908 0 0 0-.737.016l.572-.013c-.277.005-.553.012-.83.022l.258-.009a50.71 50.71 0 0 0-.663.024l.406-.015a50.63 50.63 0 0 0-1.454.071l.45-.026c-.234.012-.468.027-.7.043l.25-.017c-.242.016-.483.033-.724.052l.473-.035c-.248.017-.495.036-.742.056l.269-.021c-.288.022-.574.047-.86.074l.59-.053c-.247.021-.495.043-.742.068l.151-.015a50.12 50.12 0 0 0-1.778.202l.134-.018c-.246.032-.492.066-.737.1l.603-.082c-.278.036-.556.075-.833.117l.23-.034a49.875 49.875 0 0 0-1.86.304l.24-.043c-.251.044-.502.09-.752.14l.511-.097c-.248.045-.495.092-.742.141l.231-.045a49.712 49.712 0 0 0-1.74.37l.077-.018c-.235.054-.47.11-.704.167l.626-.15c-.272.064-.543.129-.814.196l.188-.046c-.204.05-.408.1-.612.153l.424-.107a49.623 49.623 0 0 0-2.098.571l.505-.146c-.248.07-.496.143-.743.217l.238-.07c-.237.07-.474.141-.71.215l.472-.145c-.217.066-.433.132-.648.2l.176-.055a49.606 49.606 0 0 0-1.808.603l.304-.107a49.62 49.62 0 0 0-.698.249l.394-.142c-.228.081-.456.164-.682.248l.288-.106c-.23.084-.459.17-.687.256l.399-.15c-.212.079-.423.159-.633.24l.234-.09c-.298.114-.594.23-.889.349l.655-.259c-.27.105-.54.212-.809.322l.154-.063c-.21.085-.421.172-.63.26l.476-.197c-.241.098-.482.198-.721.3l.244-.103a49.7 49.7 0 0 0-.7.3l.456-.197c-.218.093-.435.187-.651.283l.195-.086c-.28.122-.558.247-.834.374l.639-.288c-.247.109-.492.22-.736.333l.097-.045c-.206.095-.412.191-.616.289l.52-.244c-.265.122-.529.247-.791.374l.271-.13c-.231.11-.462.222-.691.335l.42-.205c-.19.091-.378.184-.566.278l.146-.073a49.84 49.84 0 0 0-1.648.856l.212-.115c-.176.095-.351.19-.526.287l.314-.172c-.217.118-.433.237-.648.358l.334-.186a49.92 49.92 0 0 0-.662.372l.328-.186c-.194.109-.388.22-.58.331l.252-.145a49.976 49.976 0 0 0-1.598.954l.11-.068a50.047 50.047 0 0 0-1.937 1.262l.39-.264c-.164.11-.327.22-.49.333l.1-.069c-.187.128-.373.258-.559.389l.46-.32c-.22.151-.44.305-.657.46l.197-.14a50.167 50.167 0 0 0-1.467 1.074l.19-.143c-.214.16-.427.324-.638.489l.448-.346c-.189.144-.376.289-.563.435l.115-.09a50.24 50.24 0 0 0-1.36 1.098l.145-.12c-.175.145-.35.292-.523.44l.379-.32c-.187.156-.373.314-.558.473l.179-.153c-.2.17-.397.341-.594.514l.415-.361c-.183.158-.365.317-.546.477l.13-.116a50.296 50.296 0 0 1 2.883-2.355l.157-.117c.315-.237.633-.47.954-.699Z" stroke="#2A951C" fill="#65EA4D"/></g></svg>