<svg xmlns="http://www.w3.org/2000/svg" viewBox="0 0 50 50"><g fill="none" fill-rule="evenodd"><path d="M25 1c13.255 0 24 10.745 24 24S38.255 49 25 49 1 38.255 1 25 11.745 1 25 1Zm12.96 10.08H12.04l11.159 14.88L12.04 40.84h25.92L26.799 25.96 37.96 11.08Z" stroke="#979797" fill="#046D00"/><path d="M37.96 11.08 26.799 25.96 37.96 40.84H12.04l11.159-14.88L12.04 11.08h25.92Z" stroke="#2A951C" fill="#48BF34"/><path d="M25 1c13.255 0 24 10.745 24 24S38.255 49 25 49 1 38.255 1 25 11.745 1 25 1Zm12.96 10.08H12.04l11.159 14.88L12.04 40.84h25.92L26.799 25.96 37.96 11.08Z" stroke="#2A951C" fill="#65EA4D"/></g></svg>