<?xml version="1.0" encoding="UTF-8"?>
<svg width="50px" height="50px" viewBox="0 0 50 50" version="1.1" xmlns="http://www.w3.org/2000/svg" xmlns:xlink="http://www.w3.org/1999/xlink">
    <title>Favicon/Small</title>
    <g id="Page-1" stroke="none" stroke-width="1" fill="none" fill-rule="evenodd">
        <g id="Artboard" transform="translate(-359.000000, -270.000000)">
            <g id="Favicon/Small" transform="translate(360.000000, 271.000000)">
                <path d="M24,0 C37.254834,0 48,10.745166 48,24 C48,37.254834 37.254834,48 24,48 C10.745166,48 0,37.254834 0,24 C0,10.745166 10.745166,0 24,0 Z M36.96,10.08 L11.04,10.08 L22.199,24.96 L11.04,39.84 L36.96,39.84 L25.799,24.96 L36.96,10.08 Z" id="Background" stroke="#979797" fill="#046D00"></path>
                <path d="M36.96,10.08 L25.799,24.96 L36.96,39.84 L11.04,39.84 L22.199,24.96 L11.04,10.08 L36.96,10.08 Z" id="Sablier" stroke="#2A951C" fill="#48BF34"></path>
                <path d="M24,0 C37.254834,0 48,10.745166 48,24 C48,37.254834 37.254834,48 24,48 C10.745166,48 0,37.254834 0,24 C0,10.745166 10.745166,0 24,0 Z M36.96,10.08 L11.04,10.08 L22.199,24.96 L11.04,39.84 L36.96,39.84 L25.799,24.96 L36.96,10.08 Z" id="Foreground" stroke="#2A951C" fill="#65EA4D"></path>
            </g>
        </g>
    </g>
</svg>